<svg xmlns="http://www.w3.org/2000/svg" viewBox="0 0 196.77 312.23"><g id="Layer_2" data-name="Layer 2"><g id="Layer_1-2" data-name="Layer 1"><polygon points="87.77 254.07 65.89 199.43 54.23 199.43 42.56 199.43 21.28 254.07 0 308.7 11.7 308.7 23.41 308.7 85.64 308.7 97.64 308.7 109.64 308.7 87.77 254.07" fill="#ec6624"/><path d="M7.38,195.3l97.7-33.88S96.71,38.33,58,38.33c-44.32,0-52.45,125.34-50.59,157" fill="#085b64"/><polygon points="138.84 165.62 148.11 311.16 178.15 149.39 138.84 165.62" fill="#fff"/><polygon points="130.46 312.23 127.65 173.77 93.99 184.73 130.46 312.23" fill="#fff"/><path d="M47.57,40.8H67A79.78,79.78,0,0,0,72.3,13.28c0-18.11-29.06-17.2-29.06-.31,0,13.87,4.33,27.83,4.33,27.83" fill="#fff"/><path d="M196.77,244.31l-18.6-95.73s-.11-.61-.19-.88c-3.13-11-43.82-9.11-90.88,4.27S4.43,185.14,7.56,196.16c2.69,9.45,33,9.36,71.22.73l-12,47.42Z" fill="#627fa1"/><path d="M122.05,145a7.76,7.76,0,1,0-6.23-9,7.75,7.75,0,0,0,6.23,9" fill="#fff"/><path d="M120.14,128.85l.1,17.58s-24.32,3.09-52.41,4c-16.64.55-23.68-4.31-25.38-15.2-5.32-33.87-6.23-67.91,5.43-69.48C58.47,64.34,66.26,93.56,71.55,125c.69,4.1-8.18-4.22-4-4,31.05,1.3,52.61,7.92,52.61,7.92" fill="#8ea34b"/></g></g></svg>