<svg xmlns="http://www.w3.org/2000/svg" viewBox="0 0 748.3 759"><g id="Layer_2" data-name="Layer 2"><g id="Layer_1-2" data-name="Layer 1"><path d="M568.27,170.88C575.2,185.7,527,222.89,460.5,254S334.57,298.2,327.64,283.38s41.32-52,107.77-83.09,125.93-44.23,132.86-29.41" fill="#085b64"/><path d="M454.94,374.62H620.06C674,502.69,679.93,621.73,679.93,621.73h-281s-2-121,56-247.11" fill="#333467"/><path d="M454.94,374.62H620.06S611.49,81.13,540.72,81.13s-85.78,293.49-85.78,293.49" fill="#ec6624"/><path d="M517.41,93.22h46.8s20.32-40,8.53-71.45-54.08-26.27-63.91-.7,8.58,72.15,8.58,72.15" fill="#69604f"/><path d="M559.93,122.49c-35.6,42.06,53.72,331.32,85.8,300.48,38.76-37.27-51.81-340.65-85.8-300.48" fill="#085b64"/><path d="M653.32,416.29a19.16,19.16,0,1,1-25.55,9,19.16,19.16,0,0,1,25.55-9" fill="#69604f"/><path d="M91.37,230.26a65,65,0,1,0,64.75-65.19,65,65,0,0,0-64.75,65.19" fill="#333467"/><path d="M154.73,275.8c132.58-.45,98,334.28,98,334.28l-192.08.65S20.72,276.25,154.73,275.8" fill="#333467"/><path d="M179.12,285.19l-38,.13s-16.62-32.43-7.12-58,43.87-21.49,51.93-.75-6.78,58.65-6.78,58.65" fill="#69604f"/><rect y="496.39" width="748.3" height="262.61" fill="#fff"/><path d="M276.91,521.19a18.2,18.2,0,1,0-12.7-22.38,18.2,18.2,0,0,0,12.7,22.38" fill="#69604f"/><path d="M273.33,473.47l-5.16,58.84S210.76,534.53,145,531c-39-2.12-56.35-21.88-57-33.12-4.34-80.23.2-167.36,27.73-168.64,25-1.17,37.22,68.64,43.12,143.06.77,9.71-18.29-10.82-8.56-10.27,74.5,4.23,123,11.49,123,11.49" fill="#627fa1"/><rect x="59.65" y="585.39" width="140.57" height="99.52" transform="matrix(0.13, -0.99, 0.99, 0.13, -516.67, 682.07)" fill="#69604f"/><rect x="158.34" y="598.23" width="140.57" height="99.52" transform="translate(-443.45 791.11) rotate(-82.59)" fill="#ec6624"/><rect x="541.24" y="517.03" width="99.52" height="140.57" transform="translate(-154.51 215.24) rotate(-18.3)" fill="#bcb5ac"/><rect x="446.75" y="548.27" width="99.52" height="140.57" transform="translate(-169.09 187.16) rotate(-18.3)" fill="#333467"/><path d="M466.65,662.1a41,41,0,1,1-41-41.05,41.05,41.05,0,0,1,41,41.05" fill="#b4bdd0"/><path d="M445.5,662.1a19.9,19.9,0,1,1-19.9-19.9,19.9,19.9,0,0,1,19.9,19.9" fill="#fff"/><polygon points="364.89 320.88 280.49 228.78 312.94 153.62 397.34 245.73 364.89 320.88" fill="#fff"/><polygon points="364.89 320.88 280.49 228.78 349.72 209.01 434.12 301.11 364.89 320.88" fill="#8ea34b"/><path d="M335.21,268.18a19.16,19.16,0,1,1-25.55,9,19.16,19.16,0,0,1,25.55-9" fill="#69604f"/></g></g></svg>