<svg xmlns="http://www.w3.org/2000/svg" viewBox="0 0 892.95 922.83"><g id="Layer_2" data-name="Layer 2"><g id="Layer_1-2" data-name="Layer 1"><path d="M671.09,233.6,638.64,276s-247-149.2-217.79-188.9C449.43,48.23,671.09,233.6,671.09,233.6" fill="#333467"/><path d="M454.35,334.27c66.1,5.13,123,527.6,84.93,530.75C509.66,867.48,411,504.16,413.19,384.85c.7-37.71,16.39-52.5,41.16-50.58" fill="#333467"/><path d="M366.57,338.15c-66.29,0-48.58,539.54-10.41,539.3,23.62-.15,64.57-339.51,65.69-458.71.53-56.18-19.59-80.59-55.28-80.59" fill="#333467"/><path d="M401.68,71.36c140,0,102.23,353.31,102.23,353.31H301.09S260.18,71.36,401.68,71.36" fill="#8ea34b"/><path d="M452.3,41.75A41.76,41.76,0,1,1,410.54,0,41.76,41.76,0,0,1,452.3,41.75" fill="#f9c19d"/><path d="M356.16,877.45l59.41,42.89h-63c-15.93,0-12.34-32.9,3.61-42.89" fill="#b4bdd0"/><path d="M539.94,864.92l69.28,23.86L548.91,907c-15.26,4.61-21.35-27.92-9-42.1" fill="#b4bdd0"/><path d="M488.27,531.07l-77.78-16.83L393.66,592l77.77,16.84Zm136-210.28-79.93-17.3L527,383.42,607,400.72Zm-264.91,1.45-86.41-18.71-18.71,86.41,86.41,18.71ZM183.22,257,518,49,722.8,373.78l-95.46,441L87.76,697.92Z" fill="#fff"/><path d="M216.83,354.18a16.44,16.44,0,1,0,21.48-8.92,16.44,16.44,0,0,0-21.48,8.92" fill="#f9c19d"/><path d="M260.34,364.66,214.7,337S336.29,75.27,378.92,100c41.71,24.21-118.58,264.64-118.58,264.64" fill="#333467"/><path d="M634,256.26a16.44,16.44,0,1,0,9.77-21.1,16.44,16.44,0,0,0-9.77,21.1" fill="#f9c19d"/><path d="M222.13,709.47S206.6,820.76,202.72,851.82s-32.36,56.95-71.18,56.95H35.77" fill="none" stroke="#fff" stroke-miterlimit="10" stroke-width="8"/><rect x="15.61" y="894.82" width="25.22" height="28.01" fill="#fff"/><path d="M3,914.87H24.78M3,902.78H24.78" fill="none" stroke="#fff" stroke-linecap="round" stroke-miterlimit="10" stroke-width="6"/><path d="M781.14,893.53c0-84-7.57-152.06-16.91-152.06s-16.91,68.08-16.91,152.06q0,8.87.12,17.47H781q.12-8.6.12-17.47" fill="#ec6624"/><path d="M893,648.3A130.42,130.42,0,1,1,762.53,517.88,130.42,130.42,0,0,1,893,648.3" fill="#8ea34b"/></g></g></svg>